<?xml version="1.0" standalone="no"?><!DOCTYPE svg PUBLIC "-//W3C//DTD SVG 1.1//EN" "http://www.w3.org/Graphics/SVG/1.1/DTD/svg11.dtd"><svg width="100%" height="100%" viewBox="0 0 16 16" version="1.1" xmlns="http://www.w3.org/2000/svg" xmlns:xlink="http://www.w3.org/1999/xlink" xml:space="preserve" style="fill-rule:evenodd;clip-rule:evenodd;stroke-linejoin:round;stroke-miterlimit:1.41421;"><g id="Ebene1"><path d="M2.654,5.181c-1.134,0 -1.916,1.04 -1.916,2.124c0,1.149 0.75,2.19 1.948,2.19c1.263,0 1.948,-1.041 1.948,-2.244c0,-1.16 -0.781,-2.07 -1.98,-2.07ZM7.607,4.725l-1.989,0l2.64,5.117l1.162,0l1.25,-2.803l1.251,2.803l1.162,0l2.64,-5.117l-1.98,0l-1.27,2.772l-1.271,-2.772l-1.063,0l-1.271,2.772l-1.261,-2.772l0,0ZM2.622,12.692c-1.295,0 -2.365,-0.769 -2.44,-2.146l0.482,0c0.053,1.041 0.92,1.691 1.915,1.691c0.621,0 1.22,-0.217 1.584,-0.748c0.385,-0.574 0.439,-1.225 0.439,-1.897l0,-0.618l-0.021,0c-0.439,0.597 -1.178,0.976 -1.927,0.976c-1.434,0 -2.397,-1.225 -2.397,-2.623c0,-1.442 1.017,-2.602 2.461,-2.602c0.803,0 1.402,0.347 1.863,0.976l0.021,0l0,-0.867l0.482,0l0,4.769c0,0.77 -0.022,1.463 -0.493,2.125c-0.456,0.634 -1.176,0.959 -1.951,0.964l-0.018,0Z" style="fill:#231f20;"/></g></svg>