<?xml version="1.0" encoding="utf-8"?>
<!-- Generator: Adobe Illustrator 21.1.0, SVG Export Plug-In . SVG Version: 6.00 Build 0)  -->
<svg version="1.1" id="Layer_1" xmlns="http://www.w3.org/2000/svg" xmlns:xlink="http://www.w3.org/1999/xlink" x="0px" y="0px"
	 viewBox="0 0 16 16" style="enable-background:new 0 0 16 16;" xml:space="preserve">
<title>skbox</title>
<desc>Created with Sketch.</desc>
<g id="Template">
	<g id="_x31_024x1024" transform="translate(-219.000000, -198.000000)">
		<g id="skbox" transform="translate(219.000000, 198.000000)">
			<g id="Box_1_">
				<g id="Page-1">
					<g id="Box">
						<path id="Shape" d="M15.2,12.4L15.2,12.4L15.2,12.4L15.2,12.4c0,0.2-0.1,0.2-0.2,0.3l-6.9,2.9c0,0-0.1,0-0.1,0
							c-0.1,0-0.1,0-0.2-0.1L1,12.7c-0.1,0-0.1-0.1-0.2-0.1l0,0v0c0,0,0-0.1,0-0.1V3.5c0-0.1,0.1-0.3,0.3-0.3l6.8-2.9
							c0,0,0.1,0,0.1,0h0h0c0,0,0,0,0,0h0h0l0,0l0,0c0,0,0,0,0,0h0l0,0L15,3.2c0.1,0,0.2,0.1,0.2,0.3L15.2,12.4L15.2,12.4L15.2,12.4
							z M14.6,12.2V4L8.3,6.7V15L14.6,12.2L14.6,12.2z M8,6.2l6.2-2.6l-1.5-0.6l0,0L6.5,5.6L8,6.2L8,6.2z M5.7,5.3L12,2.6l-1.8-0.8
							L3.7,4.6v3.5l0.8-0.4c0.1-0.1,0.3,0,0.4,0.1l0.6,1V5.6c0,0,0,0,0,0C5.5,5.5,5.6,5.3,5.7,5.3L5.7,5.3L5.7,5.3z M3.3,4.2
							l6.2-2.6L8,0.9L1.8,3.6L3.3,4.2L3.3,4.2L3.3,4.2z M7.7,15V6.7L6.1,6v3.7c0,0.1-0.1,0.3-0.2,0.3l0,0l0,0c0,0,0,0,0,0
							c0,0,0,0,0,0h0c0,0,0,0-0.1,0l0,0c0,0,0,0,0,0C5.6,10,5.6,10,5.5,9.9l-1-1.5l-1,0.5c-0.1,0-0.2,0-0.3,0
							C3.2,8.8,3.1,8.7,3.1,8.6V4.8L1.4,4v8.2L7.7,15L7.7,15z"/>
					</g>
				</g>
			</g>
		</g>
	</g>
</g>
</svg>
